<?xml version="1.0" standalone="no"?>
<!DOCTYPE svg PUBLIC "-//W3C//DTD SVG 20010904//EN"
 "http://www.w3.org/TR/2001/REC-SVG-20010904/DTD/svg10.dtd">
<svg version="1.0" xmlns="http://www.w3.org/2000/svg"
 width="1280.000000pt" height="1134.000000pt" viewBox="0 0 1280.000000 1134.000000"
 preserveAspectRatio="xMidYMid meet">
<g transform="translate(0.000000,1134.000000) scale(0.100000,-0.100000)"
fill="#000000" stroke="none">
<path d="M6280 11314 c-174 -44 -296 -120 -455 -285 l-90 -94 -2209 -3790
c-1215 -2084 -2504 -4296 -2864 -4914 l-655 -1123 -5 -81 c-5 -89 9 -227 39
-385 57 -301 208 -484 484 -587 39 -15 85 -34 103 -42 30 -14 207 -15 1795 -4
969 6 3558 16 5752 22 l3990 11 70 30 c156 68 273 145 371 243 90 90 145 196
175 340 22 104 22 115 -1 355 l-12 125 -232 405 c-129 223 -769 1337 -1423
2475 -655 1139 -1425 2480 -1713 2980 -288 501 -919 1599 -1402 2440 -963
1677 -890 1561 -1062 1690 -141 106 -251 158 -413 195 -104 25 -125 24 -243
-6z m775 -2580 c796 -1363 4044 -6928 4265 -7308 130 -222 160 -280 149 -288
-9 -5 -200 -7 -499 -4 -267 3 -2454 8 -4860 11 -2406 3 -4458 8 -4558 11 -167
6 -183 8 -179 24 2 9 431 752 952 1651 522 899 1264 2179 1650 2844 386 666
1086 1872 1555 2680 469 809 854 1474 857 1478 3 4 10 6 16 4 6 -2 299 -498
652 -1103z"/>
<path d="M5453 7145 c-150 -33 -309 -157 -376 -296 -76 -154 -74 -293 10 -501
33 -83 39 -92 92 -127 154 -104 263 -145 386 -144 57 0 98 7 140 23 99 36 93
36 111 -6 34 -80 31 -95 -25 -137 -75 -57 -167 -160 -232 -260 -68 -102 -66
-95 -44 -303 31 -301 62 -476 117 -672 l31 -112 -31 -44 c-196 -272 -300 -552
-318 -854 l-7 -112 -249 -156 c-148 -93 -255 -154 -264 -150 -9 3 -13 14 -9
28 7 36 -15 73 -78 128 -73 63 -94 74 -198 100 -46 12 -89 26 -95 31 -6 5 -14
30 -17 55 -5 51 -49 123 -129 212 -78 86 -147 114 -238 93 -41 -9 -50 -7 -115
25 -89 44 -176 53 -285 30 -41 -9 -79 -21 -86 -28 -12 -13 -1334 -2415 -1334
-2424 0 -9 3065 8 3074 17 13 12 -10 279 -39 457 -54 325 -134 571 -282 870
-81 164 -94 196 -82 207 8 7 106 67 219 133 l205 120 180 -7 c125 -5 183 -4
191 3 7 6 32 74 58 151 25 77 50 145 54 151 6 10 429 238 474 256 30 12 22
-18 -51 -187 l-70 -160 -10 -355 c-6 -195 -15 -578 -22 -850 -6 -272 -14 -504
-19 -516 -7 -17 -30 -26 -122 -48 -190 -46 -326 -113 -368 -180 -43 -71 -78
-66 498 -64 l517 3 157 705 c86 388 158 716 160 730 3 22 -2 26 -32 30 l-35 5
2 112 2 113 86 97 c133 151 229 301 436 677 24 44 49 79 54 78 6 -1 13 -52 16
-114 12 -232 70 -422 217 -716 73 -146 83 -161 193 -281 246 -267 604 -591
1001 -905 48 -37 89 -75 92 -83 8 -21 -25 -112 -65 -178 -18 -31 -83 -111
-142 -176 -60 -65 -105 -120 -100 -120 4 -1 91 0 193 1 l185 2 92 67 92 66
211 368 c116 203 210 370 208 372 -2 2 -41 13 -88 25 -47 12 -98 26 -115 31
-22 7 -144 138 -465 503 -239 272 -441 495 -447 495 -7 1 -15 -10 -19 -24 -12
-49 -29 -50 -80 -3 -25 23 -59 62 -75 85 -73 105 -118 312 -124 558 -6 257
-52 434 -187 708 l-80 162 54 47 c29 26 56 48 60 48 4 0 14 -13 23 -29 22 -44
47 -47 120 -13 83 40 147 100 185 175 35 70 37 94 11 145 -24 47 -45 66 -103
92 -26 11 -49 24 -52 29 -3 4 -18 84 -35 177 -83 476 -209 793 -385 970 -76
77 -91 86 -251 164 l-170 83 -180 -22 c-506 -63 -801 -166 -1013 -354 -55 -49
-98 -61 -121 -33 -8 9 -13 68 -14 163 -2 125 -6 158 -26 213 -27 78 -96 184
-150 233 -54 49 -171 102 -263 121 -91 19 -113 19 -195 1z m2119 -922 c134
-73 237 -294 357 -770 28 -110 49 -208 45 -216 -6 -17 -98 -97 -111 -97 -14 0
-655 1019 -648 1030 10 16 100 59 158 75 69 20 136 12 199 -22z m-1419 -1089
c59 -30 151 -111 221 -192 90 -106 236 -302 236 -317 0 -20 -117 -296 -131
-310 -26 -25 -740 -465 -755 -465 -19 0 -18 10 11 97 41 122 97 207 241 370
47 52 91 104 99 116 36 56 58 403 39 630 -4 48 -4 87 0 87 4 0 21 -7 39 -16z"/>
</g>
</svg>
